<?xml version="1.0" standalone="no"?>
<!DOCTYPE svg PUBLIC "-//W3C//DTD SVG 20010904//EN"
 "http://www.w3.org/TR/2001/REC-SVG-20010904/DTD/svg10.dtd">
<svg version="1.0" xmlns="http://www.w3.org/2000/svg"
 width="700.000000pt" height="700.000000pt" viewBox="0 0 700.000000 700.000000"
 preserveAspectRatio="xMidYMid meet">
<metadata>
Created by potrace 1.14, written by Peter Selinger 2001-2017
</metadata>
<g transform="translate(0.000000,700.000000) scale(0.100000,-0.100000)"
fill="#000000" stroke="none">
<path d="M0 3500 l0 -3500 3500 0 3500 0 0 3500 0 3500 -3500 0 -3500 0 0
-3500z m3170 2018 c1711 2 1699 2 1948 -54 504 -113 843 -403 943 -806 26
-106 35 -296 20 -410 -37 -278 -139 -495 -316 -673 -239 -240 -549 -383 -955
-440 -74 -11 -223 -18 -418 -22 l-303 -6 4 -611 c3 -534 5 -618 20 -666 48
-160 148 -208 472 -228 l110 -7 3 -64 3 -63 -298 8 c-392 10 -2759 10 -2935 0
l-138 -8 0 61 0 61 39 0 c64 0 210 29 250 50 86 44 117 115 131 310 12 163 12
2937 0 3100 -14 195 -45 266 -131 310 -40 21 -186 50 -250 50 l-39 0 0 61 0
61 133 -8 c72 -4 841 -7 1707 -6z"/>
<path d="M4270 5396 c-82 -21 -120 -62 -154 -159 -21 -61 -21 -74 -24 -1036
l-3 -973 223 5 c246 5 289 13 416 73 91 44 190 135 243 225 54 91 114 263 141
407 20 103 22 150 23 397 0 182 -5 310 -13 365 -66 426 -215 635 -498 695 -84
18 -291 19 -354 1z"/>
<path d="M2824 5372 c-55 -23 -76 -40 -107 -85 -53 -78 -52 -53 -52 -1787 0
-1663 1 -1694 40 -1770 52 -100 179 -144 304 -104 101 33 141 101 161 275 13
113 13 3085 0 3198 -14 123 -34 181 -75 223 -63 63 -185 85 -271 50z"/>
</g>
</svg>
